<svg xmlns="http://www.w3.org/2000/svg" xmlns:xlink="http://www.w3.org/1999/xlink" viewBox="0 0 371.8533 38"><defs><style>.a{fill:none;}.b{clip-path:url(#a);}.c,.i{font-size:22.8px;fill:#54565a;stroke:#54565a;stroke-miterlimit:10;stroke-width:0.665px;font-family:UDShinGoPr6N-Light-90ms-RKSJ-H, A-OTF UD Shin Go Pr6N;}.c{letter-spacing:-0.14em;}.d{letter-spacing:-0.28em;}.e{letter-spacing:-0.14em;}.f{letter-spacing:-0.04em;}.g{letter-spacing:-0.08em;}.h{letter-spacing:-0.13em;}.j{letter-spacing:-0.09em;}.k{letter-spacing:-0.12em;}.l{fill:#98989a;}</style><clipPath id="a"><rect class="a" x="0.259" y="0.3325" width="372" height="38"/></clipPath></defs><title>logo</title><g class="b"><text class="c" transform="translate(133.2954 22.52)">ファシリ<tspan class="d" x="78.4312" y="0">テ</tspan><tspan class="e" x="94.8472" y="0">ィ</tspan><tspan class="f" x="114.4546" y="0">マ</tspan><tspan class="g" x="136.3428" y="0">ネジ</tspan><tspan class="h" x="178.2944" y="0">メ</tspan><tspan x="198.1299" y="0">ント</tspan></text><text class="i" transform="translate(43.3325 22.52)">パ<tspan class="j" x="22.7998" y="0">ー</tspan><tspan class="k" x="43.5479" y="0">ソ</tspan><tspan x="63.6113" y="0">ル</tspan></text><polygon class="l" points="15.203 22.843 28.225 22.843 28.225 0 20.229 0 20.229 14.849 14.517 14.849 15.203 22.843"/><polygon class="l" points="13.375 7.994 19.086 7.994 18.401 0 5.379 0 5.379 29.697 13.375 29.697 13.375 7.994"/><path class="l" d="M26.0542,33.2719a2.3642,2.3642,0,1,0,2.3869,2.364,2.375,2.375,0,0,0-2.3869-2.364m0,3.9857a1.6232,1.6232,0,1,1,1.5533-1.6217,1.5888,1.5888,0,0,1-1.5533,1.6217"/><polygon class="l" points="6.67 35.979 8.954 35.979 8.954 35.248 6.67 35.248 6.67 34.079 9.23 34.079 9.23 33.352 5.848 33.352 5.848 37.92 9.275 37.92 9.275 37.194 6.67 37.194 6.67 35.979"/><polygon class="l" points="31.685 37.189 31.685 33.353 30.863 33.353 30.863 37.92 34.061 37.92 34.061 37.189 31.685 37.189"/><path class="l" d="M1.804,33.3527H0v4.5685H.8222V36.4591H1.804a1.6111,1.6111,0,0,0,1.7144-1.5532A1.5052,1.5052,0,0,0,1.804,33.3527m-.0684,2.3754H.8222v-1.646h.9134c.6773,0,.9834.37.9834.8238,0,.4526-.355.8222-.9834.8222"/><path class="l" d="M15.626,34.9059a1.5052,1.5052,0,0,0-1.7144-1.5532h-1.804v4.5685H12.93V36.4591h.8955l1.0225,1.4621h.9606l-1.1316-1.6167a1.5223,1.5223,0,0,0,.9492-1.3986m-1.7828.8222H12.93v-1.646h.9134c.6773,0,.9834.37.9834.8238,0,.4526-.3549.8222-.9834.8222"/><path class="l" d="M20.995,35.5961a3.5963,3.5963,0,0,0-1.0714-.3908c-.7782-.1954-.9036-.3354-.9036-.5959,0-.3956.3826-.5715.7636-.5715a2.45,2.45,0,0,1,1.6444.76V33.7905a3.0326,3.0326,0,0,0-1.6444-.5308,1.4068,1.4068,0,0,0-1.54,1.35c0,.9736.9329,1.21,1.4914,1.35.8645.2166,1.0615.3485,1.0615.705a.4184.4184,0,0,1-.2051.3908,1.3836,1.3836,0,0,1-.7164.1579,2.7217,2.7217,0,0,1-1.5988-.6936v.9639l.0407.026a3.2418,3.2418,0,0,0,1.5581.48c1.0485,0,1.6982-.508,1.6982-1.3253a1.1938,1.1938,0,0,0-.578-1.068"/></g></svg>