<?xml version="1.0" encoding="utf-8"?>
<!-- Generator: Adobe Illustrator 21.1.0, SVG Export Plug-In . SVG Version: 6.00 Build 0)  -->
<svg version="1.1" id="レイヤー_1" xmlns="http://www.w3.org/2000/svg" xmlns:xlink="http://www.w3.org/1999/xlink" x="0px"
	 y="0px" viewBox="0 0 120 224" style="enable-background:new 0 0 120 224;" xml:space="preserve">
<style type="text/css">
	.st0{fill:#333333;}
</style>
<path id="mv_logo.svg" class="st0" d="M64.1,142.2c-7.5-0.9-14.5-3.9-20.5-8.5c-2.5-2.1-4.6-4.7-6.1-7.6c-0.2-0.4-0.7-1.4-1.3-1.2
	c-0.7,0.2-0.3,1.3-0.1,1.8c4.1,10.8,15,18.5,23.7,20.9c0.5,0.2,1,0.3,1.5,0.1c0.3-0.4,0.5-0.9,0.5-1.4c0.2-1.5,1.2-1.4,2.7-2.2
	c0.5-0.2,0.9-0.7,0.9-1.2C65.3,142.2,64.5,142.2,64.1,142.2 M47.1,132.6c2.8-0.7,5.4-1.8,8-3.1c0.3-0.2,0.7-0.2,1.1-0.1
	c0.5,0.1,1.6,0.1,1.8-0.3c0.3-0.5-0.4-1.2-0.9-1.6c-0.4-0.3-2.2-1.7-3.5-2.5c-0.3-0.2-0.7-0.2-0.9,0.1c0,0-0.1,0.1-0.1,0.1l0,0
	l-0.1,0.1c-1.6,2.2-3.6,4.2-6,5.6c-0.4,0.3-1.3,0.7-1,1.3C45.7,132.9,46.7,132.7,47.1,132.6 M34.6,93.7c-0.1-0.4-0.4-0.7-0.7-0.9
	c-1.6-0.9-3.4-1.3-5.2-1.4c-0.4-0.1-0.8,0-1.1,0.2c-0.3,0.5,0.3,1.1,0.9,1.7c0.5,0.4,0.8,1,0.9,1.7c0,0.3,0.1,2.3,0.1,4V99
	c-0.1,0.3,0,0.6,0.1,0.9c0.3,0.1,0.6,0.1,0.9,0.1h2.3c0.3,0,0.6,0,0.8-0.1c0.1-0.3,0.2-0.6,0.1-0.9l0-2.2c0-0.1,0-0.3,0-0.3
	c-0.1-0.6,0-1.2,0.4-1.6C34.4,94.5,34.6,94.1,34.6,93.7 M42.4,121.3L42.4,121.3c0,1.4,0.5,2,1.8,2h0.2c1.4,0,2.4-0.3,2.4-2.1V121
	c0-1.8-0.1-4.4-0.1-6.7c0-4.3,0.1-7.9,0.1-9.2c0-0.2,0-0.2,0.4-0.4c0.1-0.1,0.3-0.1,0.4-0.2c0.3-0.2,1.2-0.6,1.1-1.2
	c-0.2-0.4-0.4-0.7-0.7-1c-0.6-0.5-2-1.7-2.6-2.2c-0.2-0.2-0.5-0.4-0.8-0.4c-0.3,0.1-0.5,0.2-0.6,0.5l0,0.1l0,0
	c-0.2,0.4-0.9,1.3-1.2,1.6c-0.1,0.2-0.3,0.2-0.4,0.2H27.7c-0.9,0-1.8,0-2.8-0.2c-0.4-0.2-0.8-0.2-1.1-0.1c-0.2,0.4-0.2,0.9,0,1.3
	c0.1,0.3,0.2,0.5,0.3,0.7l0,0l0,0c0.1,0.3,0.4,0.4,0.7,0.4c1.3-0.2,2.6-0.3,4-0.2h13.7c0,0.6,0,1.3,0,2.1c0,1.2,0,11.3-0.1,13.7
	L42.4,121.3 M50.4,166c1-0.1,2,0.1,2.3-0.4c0-0.5-0.2-1-0.7-1.2c-0.4-0.3-2.5-2.1-2.8-2.4c-0.3-0.4-0.7-0.7-1.2-0.8
	c-0.4,0.1-0.5,0.8-1.3,1.4c-4.3,3.3-9.3,5.4-14.6,6.3c-0.5,0.1-1.3,0.3-1.3,0.8c0.1,0.5,1.1,0.6,2.1,0.6c8.9-0.3,13.5-2.4,16.4-3.9
	C49.6,166.1,50,166,50.4,166 M27.5,159c-0.4-0.3-2.3-1.7-3.1-2.1c-0.3-0.3-0.8-0.4-1.3-0.3c-0.3,0.2-0.1,0.9-0.1,1.6
	c0,0.4,0,1,0.1,1.6l0,0.1c0.1,2.2,0.3,7.3,0.3,11.1c0,0.9,0,1.9,0,2.7c0.1,7.5,0.4,12.4-3.8,18.3c-0.3,0.4-0.8,1-0.4,1.4
	s1.1-0.2,1.6-0.6c6.7-6.4,6.7-10.7,6.7-19.2c0-0.7,0-1.5,0-2.3v-0.4v-0.1v-0.5c0-1.5,0-6.2,0-7.6c0-0.8,0-1,0-1.1
	c0.1-0.6,0.3-1.1,0.7-1.5C28.2,159.6,27.9,159.2,27.5,159 M51.4,177.9c-0.4,0.3-1.2,0.8-0.8,1.4c0.2,0.4,1,0.2,1.7,0
	c1.9-0.7,3.7-1.6,5.4-2.7c0.3-0.3,0.7-0.4,1.2-0.5c0.4-0.1,1.8-0.1,2.1-0.6c0.2-0.5-0.3-0.9-0.7-1.3c-0.3-0.3-2.7-2.3-3.2-2.7
	c-0.3-0.3-0.6-0.4-1-0.3c-0.3,0.2-0.3,0.9-0.9,2C54.2,174.8,52.9,176.5,51.4,177.9 M33.1,161.1c0.2,0.4,1,0.2,1.7-0.1
	c3.2-1.2,6-2.9,8.5-5.2c0.3-0.3,0.8-0.6,1.2-0.8c0.9-0.3,2.7-0.5,2.8-1.1c0.1-0.5-0.7-0.9-1.2-1.2c-1-0.4-3.5-1.3-4.3-1.7
	c-0.3-0.2-0.8-0.3-1.2-0.2c-0.2,0.2-0.1,0.8-0.4,1.4c-1.3,2.9-3.4,5.4-6,7.3C33.3,160.1,32.8,160.6,33.1,161.1 M13.6,186.7
	c1.3-4.2,3-10.2,5.1-17.2c0.1-0.5,0.8-2.3,0-2.5s-1.2,1.3-1.5,2.1c-3,7.9-5.8,14.4-6.9,16.6c-0.5,1.1-0.9,1.4-2.7,1.3l-0.1,0
	c-0.5,0-1.7-0.1-1.8,0.3s0.8,0.9,1.6,1.2c2.9,1.1,3.1,3.5,3.1,5.2c-0.1,1.3-0.4,2.5-0.8,3.7c-0.4,1.3-0.7,2.6-0.7,4
	c0,2.8,1.1,3.9,2.5,3.9s2.5-1.1,2.5-3.9c0-1.3-0.3-2.6-0.7-3.9c-0.6-1.7-0.8-3.4-0.8-5.2C12.7,190.5,13.1,188.6,13.6,186.7
	 M6.5,167.9c1.2,1.1,2,2.5,2.4,4c0.2,0.6,0.5,1.2,0.8,1.7c0.4,0.6,1,0.9,1.6,0.9c1.3-0.1,2.2-1.2,2.2-2.5v-0.2v-0.1
	c-0.1-0.9-0.6-4-6.3-5.6c-0.4-0.1-1.4-0.4-1.7,0C5.2,166.8,6.2,167.6,6.5,167.9 M11.1,153.7c-0.4-0.1-1.5-0.5-1.8-0.1
	c-0.2,0.4,0.2,1,0.9,1.6c1.1,1.2,2,2.7,2.4,4.3c0.2,0.7,0.5,1.3,0.9,1.8c0.4,0.6,1,0.9,1.6,0.9c1.3-0.1,2.2-1.2,2.2-2.5v-0.2v-0.1
	C17,157.1,14.8,154.9,11.1,153.7 M38.1,173.5c-0.3-0.1-0.7-0.1-1,0l-2.2,0.3c-0.3-0.1-0.7,0.1-0.8,0.5c0,0.2,0,0.3,0,0.5
	c0,7-0.3,26.8-0.4,32.8c0,1.4,1.3,1.5,2,1.5h0.3c1.8-0.1,2.2-0.7,2.2-1.7l-0.1-32.9C38.4,174.1,38.3,173.8,38.1,173.5 M62.4,198.8
	c-9.5-6.1-12.6-12.5-13.9-15.9c-0.7-2-1.3-4-1.8-6.1c-0.1-0.5-0.3-1.6-0.8-1.6s-0.5,1.3-0.5,1.8c0.4,13.2,6,19.1,11,24.4
	c0.3,0.3,0.5,0.5,0.8,0.8c0.2,0.2,0.5,0.3,0.7,0.3c0.4-0.1,0.8-0.4,0.9-0.9c0.4-0.7,1-1.1,2.9-1.1h0.1c0.4,0,1.3-0.1,1.5-0.5
	C63.7,199.5,62.8,199.1,62.4,198.8 M114.2,138.2c0.2-0.4,0.7-1.6,0.2-1.9c-0.5-0.3-1.2,0.8-1.5,1.2c-4.1,5.7-12.8,11.3-19.3,11.3
	c-1.7,0-3.4-0.3-5-0.9c-3.6-1.4-4.1-4.6-4.1-7.5c0-2.8,0.2-5.6,0.5-8.4c0.1-0.9,0.2-1.7,0.3-2.7c0.2-2.9,0.7-5.8,1.5-8.6
	c0.3-0.8,0.5-1.6,0.5-2.5c0-3-3.5-5.3-6.7-5.3h-0.5h-0.1c-0.4,0-1.4,0.1-1.5,0.5c-0.1,0.6,0.7,1,1,1.2c0.1,0.1,0.2,0.1,0.2,0.1
	c1.7,1.2,2,2.6,2,4.8c0.1,1.1,0.1,2.2,0.1,3.3c0,2-0.1,4.1-0.3,6.1c-0.1,0.8-0.2,1.7-0.2,2.9c-0.2,3-0.4,5.6-0.4,8
	c0,5.7,1,10,6.1,12c2,0.8,4.2,1.2,6.4,1.3C100.9,153.2,110.1,146.6,114.2,138.2 M119.2,218.2c-0.9-1.7-2.1-3.1-3.7-4.2
	c-1.9-1.5-4.2-2.6-6.6-3.1c-0.4-0.1-1.7-0.3-1.9,0.2c-0.2,0.5,0.8,1.2,1.2,1.4c4,2.7,5.3,5.7,6.5,7.7l0.4,0.6
	c0.4,0.8,1.2,1.3,2.1,1.4c1.4-0.1,2.4-1.3,2.3-2.6C119.4,219.1,119.3,218.6,119.2,218.2L119.2,218.2 M93.5,94.6
	c-0.4-0.2-1,0.8-1.3,1.2c-0.7,1.3-1.1,2.8-1.1,4.3c-0.1,2,0.6,3.9,1.9,5.5c2.9,3.3,7.7,5.1,14,5.1c2.4,0,4.9-0.2,7.3-0.6
	c1.3-0.2,2.2-1.2,2.3-2.5c0-1.2-0.8-2.5-3-2.5c-0.3,0-0.5,0-0.8,0.1l-0.3,0c-2.6,0.3-5.3,0.5-8,0.4c-3.1-0.1-7.2-1.1-8.7-2.4
	c-1.5-1.2-2.3-3-2.3-4.9c0-0.7,0-1.4,0.1-2.1C93.7,95.8,93.9,94.8,93.5,94.6 M107.8,84.8c-0.6,0.5-0.8,0.9-0.6,1.2
	c0.2,0.3,1,0.1,1.6-0.1c1.6-0.5,3.2-0.8,4.8-0.7c0.5,0,0.9,0,1.4,0.1h0.1h0.3c1.2,0.1,2.3-0.7,2.4-1.9c0-0.1,0-0.1,0-0.2
	c0-0.5-0.1-1-0.4-1.4c-1.1-2.2-4.4-3.7-8.6-3.7c-2.3,0-4.5,0.5-6.6,1.6c-0.4,0.2-1.1,0.8-0.9,1.2c0.2,0.4,1,0.4,1.5,0.4
	c2.7-0.2,5.8-0.1,7.4,0.7c0.4,0.2,0.6,0.4,0.5,0.6C110.7,82.9,108.5,84.3,107.8,84.8 M85.6,72c-0.1,0.3-0.1,0.7,0,1
	c0.3,0.1,0.7,0.2,1,0.1l0,0c0.5,0,1-0.1,1.5-0.2c0.1,0,0.1,0,0.2-0.1c0.3,0,0.5-0.2,0.8-0.3c0.1-0.2,0.3-0.5,0.3-0.7
	c0.4-1.4,1-2.7,1.6-4.2c0.1-0.2,0.2-0.4,0.4-0.6c0.3-0.4,0.5-0.9,0.6-1.4c0-0.1,0-0.1,0-0.2v-0.1c0-2.2-2.9-4.2-6.1-4.2
	c-0.4,0-0.7,0-1.1,0.1c-0.4,0.1-1.3,0.3-1.4,0.8c-0.1,0.5,0.7,0.8,1.1,1c0,0,0.1,0,0.2,0.1c1.2,0.5,1.7,0.9,1.7,2.8
	c0,0.7-0.1,1.3-0.2,2C86.1,69.3,85.9,70.5,85.6,72 M78.3,101.6L78.3,101.6c0.7,0,1.8-0.3,2.7-2.4c1.7-3.7,3-7.5,4-11.5
	c0.4-1.6,0.9-3.4,1.6-5.4l0.1-0.5c0.2-0.3,0.2-0.7,0.1-1.1c-0.3-0.1-0.6-0.2-0.9-0.1c-0.1,0-0.2,0-0.2,0l-0.2,0l0,0
	c-0.1,0-0.2,0-0.3,0c-0.1,0-0.3,0-0.4,0c-0.4-0.2-0.9,0-1.1,0.4c-0.1,0.1-0.1,0.3-0.1,0.4c-2.1,7.1-3,8.6-5.8,13.1
	c-0.9,1.4-1.5,2.9-1.6,4.6c-0.2,1.2,0.7,2.3,1.9,2.5C78.1,101.6,78.2,101.6,78.3,101.6 M84.3,79c1.8,0,3.5-0.2,5.3-0.5
	c3.4-0.6,6.3-1.8,7.9-3.1c0.7-0.5,1.1-1.3,1.1-2.1c0-1.1-0.8-2-1.9-2c0,0,0,0-0.1,0c-0.2,0-0.4,0-0.6,0.1c-0.6,0.2-1.2,0.1-1.8-0.1
	C94,71.2,92.3,70.5,92,71c-0.2,0.4,0.4,1,0.7,1.3c0.1,0.1,0.2,0.3,0.2,0.5c-0.1,0.2-0.3,0.4-0.5,0.5c-1.1,0.5-2.2,0.9-3.4,1.2
	c-2.2,0.5-4.4,0.7-6.7,0.7c-2.2,0.1-4.5-0.2-6.6-0.9c-1-0.4-1.5-0.7-1.7-0.5c-0.3,0.3,0.1,1.3,0.3,1.7c1.1,2,4.3,3.3,8.9,3.4
	C83.6,79,84,79,84.3,79 M84.4,179.4L84.4,179.4c-0.5-0.1-1,1.2-1.2,1.9c-1.3,3.5-2.6,6.5-3.3,9c0,0.1,0,0.2-0.1,0.2
	c-0.1-0.1-0.1-0.3-0.2-0.5c-0.5-1.7-0.7-3.5-0.7-5.2c0.1-7.2,2.3-10.5,3.2-11.6c0.1-0.1,0.2-0.2,0.3-0.3c0.6-0.5,1.1-1.2,1.4-1.9
	c0-0.2,0-0.4,0-0.6c-0.3-2.4-1.7-4.6-3.9-5.8c-0.4-0.3-1-0.4-1.5-0.4c-0.3,0.2,0.1,1.1,0.1,1.4c0.1,0.6,0.2,1.3,0.3,2
	c0,1.6-0.3,3.1-0.7,4.7l-0.1,0.5c-1.2,4.3-1.7,8.8-1.6,13.2c0.1,3.4,0.7,6.8,1.9,10c0.8,2.1,1.7,4,3.2,4h0c0.7-0.1,1.4-0.5,1.6-1.2
	c0.3-0.7,0.4-1.4,0.4-2.1c0-0.3,0-0.6-0.1-0.9c-0.2-0.9-0.3-1.8-0.4-2.7c-0.2-3.8,0.3-7.6,1.3-11.3C84.6,180.9,85,179.5,84.4,179.4
	 M102.7,176c0.3,0,0.6,0,0.8-0.2c0.1-0.3,0.2-0.6,0.1-0.9c0-0.3,0-0.9,0-1.2c0-0.3,0-0.5-0.1-0.8c0-0.3,0-0.5-0.2-0.8
	c-0.3-0.1-0.6-0.2-0.9-0.1c-0.9,0-1.8,0.1-2.3,0.1c-2.6,0.1-5.2-0.1-7.7-0.6c-2.2-0.4-3.6-1.4-4-1.1c-0.3,0.2,0.1,1,0.7,1.6
	c2.2,2.2,8.5,3.8,12.7,3.8C102.3,176,102.5,176,102.7,176 M112.2,170.5c-0.2,0-0.4,0.1-0.6,0.2c-0.1,0.4-0.1,0.7-0.1,1.1
	c0,0.2,0,0.1,0,0.4l0,0.2c0,0.2,0,0.6,0,0.8c-0.1,0.5,0,0.9,0.2,1.4c0.3,0.1,0.7,0.1,1,0c3.7-0.9,4.3-1.5,5-2.2
	c0.6-0.6,0.9-1.4,0.9-2.3c0-0.9-0.6-1.9-2.3-2.1c-0.2,0-0.5,0-0.8,0l-0.1,0c-0.8,0-1.5-0.1-2.3-0.2c-0.6-0.1-1.3-0.4-1.5,0
	c-0.1,0.5,0.1,1,0.6,1.3c0.3,0.1,0.5,0.4,0.5,0.8C112.9,170.2,112.6,170.5,112.2,170.5 M109.8,164.4c0.3-0.4,0.5-0.9,0.5-1.4
	c0-2.3-3.4-4.3-6.2-4.3c-0.4,0-0.8,0-1.1,0.1c-0.9,0.2-1.7,0.6-1.7,1c0,0.4,0.9,0.7,1.6,1c1.5,0.7,2.3,1.6,2.5,4.3
	c0.2,2,0.3,3.9,0.3,5.7v0.1c0,0.2,0,0.4,0,0.6c0,0.3,0,0.6,0,1c0.1,1.1,0.1,2.5,0.1,3.7v0.1v0.1c0.1,1.9,0.1,3.9,0.1,6l0,0.4
	c0,0.6,0,1.6,0,2.7c0,1.3,0,2.7,0.1,3.5c0,0.3,0,0.6,0.1,1c0.3,0.2,0.5,0.2,0.8,0.3c0.2,0,0.4,0.1,0.7,0.2l0.2,0.1
	c0.2,0.1,0.5,0.1,0.7,0.2c0.4,0.1,0.7,0.1,1.1,0c0.1-0.3,0.1-0.6,0.1-0.9c-0.1-3-0.2-7.5-0.3-10.5l0-0.7v-0.1c0-0.3-0.1-0.6-0.1-0.8
	c0-1.7,0-3.7,0-5.6c0-0.6,0-1.2,0-1.7v-0.1c0-1,0-1.7,0-2.4v-0.4c0-0.8,0-1.5,0.1-2.2C109.6,165,109.7,164.7,109.8,164.4
	 M109.8,193.4L109.8,193.4L109.8,193.4c-1-0.4-2-0.7-2.9-0.9l-0.1,0c-1.7-0.5-3.5-0.7-5.4-0.7c-5.4,0-7.2,2.7-7.8,5
	c-0.2,0.6-0.2,1.1-0.2,1.7c0,4,3.4,6.9,8.2,6.9c3.9,0,7.5-2.3,8.3-4.4c0.1-0.3,0.2-0.5,0.2-0.8c-0.2-0.3-0.4-0.5-0.7-0.6
	c-0.3-0.2-0.7-0.5-1.1-0.7c-0.3-0.2-0.7-0.3-0.9-0.5c-0.3-0.2-0.6-0.3-1-0.3c-0.2,0.3-0.3,0.6-0.4,0.9l0,0c-0.3,1-2,2.5-4.9,2.5
	c-2.8,0-5.3-1.9-5.3-4c0-0.1,0-0.3,0-0.4l0,0c0.3-1.7,2.1-2.8,4.6-2.8c1.9,0.1,3.8,0.5,5.6,1.3l0,0l0,0c0.1,0,0.1,0,0.2,0.1l0.3,0.1
	c1,0.4,1.9,0.8,2.8,1.3l0.1,0.1c0.1,0.1,0.2,0.1,0.3,0.2s0.2,0.1,0.3,0.2c1.9,1.3,3.5,3,4.8,4.9c0.5,0.8,1.4,1.2,2.3,1.3
	c1.2,0.1,2.2-0.8,2.3-2c0,0,0-0.1,0-0.1c0-0.8-0.3-1.5-0.8-2.1C117.1,197.3,113.9,195.1,109.8,193.4 M86.9,45.1
	c-0.2,0-0.3-0.1-0.4-0.1l-0.1,0c-1-0.5-1.6-0.8-2.7-1.4c-0.4-0.2-1.3-0.7-1.7-0.3c-0.4,0.4,0.3,1.3,0.6,1.6l0.5,0.5
	c1.3,1.3,2.1,2.9,2.4,4.7c0.1,0.4,0.2,0.9,0.2,1.3c0.2,1.3,0.4,2.6,1.7,2.9c0.2,0.1,0.4,0.1,0.7,0.1c0.5,0,0.9-0.1,1.3-0.4
	c1.2-0.9,2-3,2-5.8c0-0.5-0.1-1.1-0.1-1.7L91,44.9c-0.4-3.6-0.8-11.5-0.8-15.5c0.1-0.3,0-0.7-0.2-1c-0.3,0-0.6,0.1-0.8,0.3
	c-0.8,0.5-1.4,1.1-2,1.8C87,30.7,87,31,87,31.2c0,0.3,0,0.7,0,1c0,0.3,0,0.5,0,0.8c0,1.7,0,3.8,0.1,5.1c0,1,0,5.5,0,6.5
	C87.1,44.7,87.1,45.1,86.9,45.1 M86,1.7c1.1,1,1.4,1.9,1.4,4.1c0,0.2,0,0.4,0,0.6c0,0.2,0,0.5,0,0.7l-0.1,0.9c0,0.8-0.2,3.3-0.4,6
	c-0.2,3.2-0.4,6.4-0.4,6.9V21c0,0.5,0,0.9-0.1,1.2l0,0c-3.2,5.4-7,10.4-11.4,14.9c-0.8,0.8-1.2,1.8-1.2,2.9c0,1.5,0.9,3.2,2.2,3.2
	c0.9-0.1,1.7-0.7,2.2-1.5c0.4-0.6,0.7-1.1,0.9-1.8c0.4-0.9,0.8-1.8,1.3-2.6l0.4-0.7l0.1-0.1c1.5-2.8,3.3-5.5,5.3-8
	c1.5-1.7,3.2-3.2,5.1-4.4c3.6-2.5,8.8-5.2,12.8-5.2c4.8,0,10.1,2.3,10.7,8.6c0.7,7-3.4,11.8-12.4,14.2c-0.5,0.1-2,0.4-2,1
	c0.1,0.7,1.7,0.5,2.3,0.5c6.3-0.8,11.6-3.4,14.6-7.4c2-2.6,2.9-6,2.4-9.3C118.3,17,109,16.2,106,16.2h-0.1c-6.9,0-13.4,4.4-16.4,6.8
	c0-0.1,0-0.1,0-0.2c0-0.3,0-0.7,0-1v0c0.7-1.5,1.7-2.8,3-3.8c0.6-0.4,1-0.9,1.4-1.5l0,0c0.1-0.3,0.2-0.6,0.2-0.9
	c0-1.3-1.1-2.3-2.4-2.3c-0.1,0-0.1,0-0.2,0c-0.5,0-0.9,0.1-1.4,0.3c0.8-5.1,1.8-6.7,2.4-7.6c0.3-0.4,0.6-1,0.6-1.5c0,0,0-0.1,0-0.2
	c0-2.1-4-4-6.6-4.2c-0.4,0-1.3-0.1-1.5,0.4C85,0.9,85.7,1.4,86,1.7 M78.1,23.3c0.3,0,0.5-0.1,0.8-0.1l0,0c0.7-0.3,1.3-0.7,1.8-1.3
	c1.1-0.9,2.2-1.8,3.4-2.6c0.2-0.1,0.4-0.3,0.5-0.5c0.1-0.2,0.1-0.5,0.1-0.8c0-0.2,0-0.5,0-0.8c0.1-0.4,0-0.8-0.2-1.1
	c-0.4,0-0.8,0.1-1.1,0.3c-1.4,0.7-3.2,1.3-3.9,1.6c-0.8,0.2-1.6,0.4-2.4,0.4c-0.8,0-1.6-0.2-2.4-0.5c-0.3-0.2-1-0.8-1.4-0.5
	c-0.3,0.5-0.3,1-0.1,1.5C73.8,20.8,76,23.3,78.1,23.3 M7.3,84.9c-0.4,0.3-1.2,1-0.9,1.5s1.2,0.2,1.7,0c5.4-2.5,10.1-7.3,11.9-9.3
	c0.2-0.2,0.6-0.3,0.9-0.2h0.5c0.6,0.1,1.1-0.2,1.5-0.6c0.2-0.4-0.2-0.9-0.9-1.3c-1.6-0.8-3-1.4-4.6-2.1l0,0
	c-0.3-0.1-0.6-0.2-0.8-0.2c-0.2,0.2-0.4,0.4-0.4,0.7C14.2,78,11.2,81.9,7.3,84.9 M44.3,73.8c-0.5-0.2-1.2-0.3-1.4,0.2
	c-0.1,0.5,0.2,1,0.7,1.2c4.8,2.8,6.4,5.9,8.2,9.3l0,0c0.4,0.9,1.2,1.5,2.2,1.6c1.4-0.1,2.4-1.4,2.3-2.7c0,0,0,0,0,0
	c0-0.9-0.3-1.7-0.8-2.5C53.5,78.1,49.7,75.7,44.3,73.8 M45,47.9c-0.3,0.4-0.2,1,0.1,1.3c2.5,4.3,6.3,7.8,10.8,9.9l0,0
	c0.1,0,0.2,0.1,0.4,0.1c0.1,0,0.3,0,0.4-0.1c0.3-0.1,0.4-0.4,0.5-0.6c0.5-1.6,0.6-2.1,1.5-2.6c0.5-0.1,0.9-0.5,1-1
	c0-0.5-0.9-0.6-1.3-0.6c-4.5-0.9-8.7-2.9-12.1-5.9C46,47.9,45.5,47.7,45,47.9 M35.1,70.3c0.1-0.3,0-0.6-0.1-0.8
	c-0.2-0.1-0.4-0.2-0.7-0.1l-2.9,0l0,0c-0.3-0.1-0.6,0-0.8,0.3c-0.1,0.2-0.1,0.3,0,0.5c0,0.8,0.1,1.4,0.1,1.9c0,0.9,0.1,2,0,2.8
	s0,2-0.1,3.1c0,0.7-0.1,0.7-0.6,0.7c-1.2,0-2.6,0-4.7-0.2c-0.9-0.1-1.4,0.1-1.5,0.4c0.1,0.5,0.5,0.9,1,1l0.4,0.1
	c2.3,0.7,2.7,1.2,3,3.3c0,0.3,0.1,0.6,0.3,0.8c0.2,0.2,0.4,0.3,0.7,0.3h0.1c5-0.5,5.7-2.9,5.7-5.2v-0.6c0-0.7,0-0.8,0-1.1
	c0-0.2,0-0.4,0-0.9s0-0.8,0-1c0-0.2,0-0.4,0-1.1c0-2.3,0-2.3,0-4L35.1,70.3 M14.1,65c-0.4-0.2-0.8-0.2-1.2-0.1
	c-0.1,0.4-0.1,0.9,0.2,1.3c0.1,0.3,0.3,0.6,0.5,0.9c0.1,0.2,0.3,0.4,0.6,0.4c1.3-0.2,2.6-0.3,3.9-0.3h36.2c0.5,0,0.9-0.4,0.9-0.9
	c0-0.3-0.1-0.5-0.3-0.7c-0.8-0.7-2.6-2.4-3.9-3.4L50.8,62c-0.2-0.3-0.7-0.4-1-0.1c-0.1,0.1-0.2,0.2-0.3,0.4c-0.7,1-1.2,1.7-2,2.8
	c-0.1,0.1-0.2,0.2-0.3,0.2H18C16.7,65.3,15.4,65.2,14.1,65 M24.6,57.7L24.6,57.7c0.1,0.3,0.4,0.5,0.7,0.4c1.3-0.2,2.6-0.3,4-0.2H42
	c0.5,0,0.9-0.4,0.9-0.9c0-0.3-0.1-0.6-0.4-0.7c-1.1-0.9-2.7-2.2-3.5-3c-0.2-0.2-0.5-0.3-0.8-0.3c-0.3,0.1-0.5,0.3-0.6,0.5
	c-0.5,0.7-1.3,1.7-1.8,2.4c-0.1,0.1-0.1,0.1-0.2,0.1h-6.3c-1.3,0.1-2.6,0-3.9-0.2c-0.4-0.2-0.8-0.2-1.1-0.1c-0.2,0.4-0.2,0.9,0,1.3
	C24.4,57.3,24.5,57.5,24.6,57.7L24.6,57.7 M30.7,45.8h25.5c0.5,0.1,0.9-0.1,1.2-0.5c0.1-0.4-0.1-0.9-0.5-1.1
	c-0.8-0.7-2.6-2.4-3.9-3.4l-0.1-0.1c-0.2-0.2-0.4-0.2-0.6-0.2c-0.3,0.1-0.5,0.3-0.6,0.5c-0.7,1-1.2,1.6-2,2.8l0,0
	c-0.1,0.1-0.2,0.2-0.3,0.2H32c0.2-0.2,0.4-0.5,0.6-0.8c0.6-0.8,1.3-1.8,1.5-2.1c0.3-0.4,0.7-0.6,1.2-0.7c0.5,0,0.9-0.2,1.1-0.6
	c0.2-0.7-0.6-1.2-1.1-1.3c0,0-5.1-1.8-6-2.1C29,36,28.5,35.9,28,36c-0.3,0.2-0.3,1.2-0.5,2.2c-0.5,2-1.3,3.9-2.4,5.7H12
	c-1.3,0-2.6-0.1-3.9-0.4c-0.4-0.2-0.8-0.3-1.3-0.2c-0.1,0.5,0,1,0.2,1.5c0.1,0.3,0.2,0.5,0.3,0.7l0.1,0.1l0,0
	C7.6,45.9,7.8,46,8,46.1c1.3-0.3,2.6-0.4,3.9-0.3h12.2c-2.7,4.3-5.9,8.2-9.7,11.6c-4.3,3.9-8.9,7.4-13.8,10.5
	c-0.5,0.3-0.9,0.8-0.7,1.2s1,0.2,1.5,0C12.8,63.5,22.8,55.6,30.7,45.8 M51.2,209.3c-4,0.1-7.1,3.4-7.1,7.4c0.2,3.9,3.5,6.8,7.4,6.6
	c3.9-0.2,6.8-3.5,6.6-7.4C57.9,212.2,54.9,209.3,51.2,209.3 M51.4,221.6c-2.9,0.2-5.4-2.1-5.6-5c-0.2-2.9,2.1-5.4,5-5.6
	c2.9-0.2,5.4,2.1,5.6,5c0,0.1,0,0.2,0,0.3C56.5,219.2,54.3,221.5,51.4,221.6L51.4,221.6z M39,122L39,122L39,122
	c0.1-0.3,0.3-0.5,0.4-0.8c0.2-0.4,0.2-0.9,0-1.3c-0.4-0.1-0.8,0-1.1,0.1c-0.9,0.2-1.9,0.3-2.8,0.2H20.3c0-6.9,0-13.8,0-14.4
	c-0.1-0.5,0-1.1,0.2-1.5c0.2-0.2,0.3-0.4,0.4-0.6c0-0.3-0.3-0.6-0.6-0.7c-0.4-0.2-2.6-1.6-3.4-2c-0.4-0.2-0.8-0.3-1.2-0.1
	c-0.3,0.2-0.1,0.8,0.1,1.5c0.2,0.7,0.4,7.3,0.4,15.9c0,7.1-0.1,11.8-0.3,15.8c-1.8,0.3-3.6,0.4-5.4,0.5c-0.4-0.1-0.8,0-1.2,0.1
	c-0.1,0.4,0,0.8,0.1,1.1l0.2,0.6c0.3,1,0.9,2.7,1.3,3.8l0,0c0.1,0.4,0.4,0.8,0.8,0.9c0.5,0,0.9-1.3,1.1-1.7c0.1-0.1,0.2-0.2,0.3-0.3
	c6.7-1.8,13.3-4.1,19.7-7c0.4-0.2,1.2-0.6,1-1.2c-0.2-0.5-1.1-0.4-1.6-0.2c-3.9,1.1-7.9,2-12,2.6c0-2,0-6.5,0-11.3h14.1
	c1.3-0.1,2.7,0,4,0.2C38.6,122.4,38.9,122.3,39,122 M38.2,113c0.3,0.1,0.6-0.1,0.7-0.4l0,0l0,0c0.1-0.2,0.2-0.4,0.3-0.7
	c0.2-0.4,0.2-0.9,0-1.3c-0.4-0.1-0.8,0-1.1,0.1c-1.6,0.2-3.2,0.3-4.7,0.2h-3.8c-1.5,0-3,0-4.5-0.2c-0.4-0.2-0.8-0.2-1.1-0.1
	c-0.2,0.4-0.2,0.9,0,1.3c0.1,0.3,0.2,0.5,0.3,0.7l0,0l0,0c0.1,0.3,0.4,0.4,0.7,0.4c2.1-0.2,4.2-0.2,6.3-0.2h0.3
	C34.5,112.9,37.8,112.9,38.2,113"/>
</svg>
